<?xml version="1.0" encoding="iso-8859-1"?>
<!-- Generator: Adobe Illustrator 19.0.0, SVG Export Plug-In . SVG Version: 6.00 Build 0)  -->
<svg xmlns="http://www.w3.org/2000/svg" xmlns:xlink="http://www.w3.org/1999/xlink" version="1.1" id="Capa_1" x="0px" y="0px" viewBox="0 0 512 512" style="enable-background:new 0 0 512 512;" xml:space="preserve" width="512px" height="512px">
<g>
	<g>
		<path d="M403.026,35.461V7.5h-30v27.961H138.974V7.5h-30v27.961H0V504.5h512V35.461H403.026z M482,474.5H30V163.957h452V474.5z     M482,133.957H30V65.461h78.974v27.961h30V65.461h234.053v27.961h30V65.461H482V133.957z" fill="#35a4b4"/>
	</g>
</g>
<g>
	<g>
		<rect x="153.68" y="203.17" width="41.29" height="30" fill="#35a4b4"/>
	</g>
</g>
<g>
	<g>
		<rect x="234.47" y="203.17" width="41.29" height="30" fill="#35a4b4"/>
	</g>
</g>
<g>
	<g>
		<rect x="315.26" y="203.17" width="41.29" height="30" fill="#35a4b4"/>
	</g>
</g>
<g>
	<g>
		<rect x="396.05" y="203.17" width="41.29" height="30" fill="#35a4b4"/>
	</g>
</g>
<g>
	<g>
		<rect x="153.68" y="271.56" width="41.29" height="30" fill="#35a4b4"/>
	</g>
</g>
<g>
	<g>
		<rect x="74.67" y="271.56" width="41.29" height="30" fill="#35a4b4"/>
	</g>
</g>
<g>
	<g>
		<rect x="234.47" y="271.56" width="41.29" height="30" fill="#35a4b4"/>
	</g>
</g>
<g>
	<g>
		<rect x="315.26" y="271.56" width="41.29" height="30" fill="#35a4b4"/>
	</g>
</g>
<g>
	<g>
		<rect x="396.05" y="271.56" width="41.29" height="30" fill="#35a4b4"/>
	</g>
</g>
<g>
	<g>
		<rect x="153.68" y="339.95" width="41.29" height="30" fill="#35a4b4"/>
	</g>
</g>
<g>
	<g>
		<rect x="74.67" y="339.95" width="41.29" height="30" fill="#35a4b4"/>
	</g>
</g>
<g>
	<g>
		<rect x="234.47" y="339.95" width="41.29" height="30" fill="#35a4b4"/>
	</g>
</g>
<g>
	<g>
		<rect x="315.26" y="339.95" width="41.29" height="30" fill="#35a4b4"/>
	</g>
</g>
<g>
	<g>
		<rect x="396.05" y="339.95" width="41.29" height="30" fill="#35a4b4"/>
	</g>
</g>
<g>
	<g>
		<rect x="153.68" y="408.34" width="41.29" height="30" fill="#35a4b4"/>
	</g>
</g>
<g>
	<g>
		<rect x="74.67" y="408.34" width="41.29" height="30" fill="#35a4b4"/>
	</g>
</g>
<g>
	<g>
		<rect x="234.47" y="408.34" width="41.29" height="30" fill="#35a4b4"/>
	</g>
</g>
<g>
	<g>
		<rect x="315.26" y="408.34" width="41.29" height="30" fill="#35a4b4"/>
	</g>
</g>
<g>
	<g>
		<rect x="396.05" y="408.34" width="41.29" height="30" fill="#35a4b4"/>
	</g>
</g>
<g>
</g>
<g>
</g>
<g>
</g>
<g>
</g>
<g>
</g>
<g>
</g>
<g>
</g>
<g>
</g>
<g>
</g>
<g>
</g>
<g>
</g>
<g>
</g>
<g>
</g>
<g>
</g>
<g>
</g>
</svg>
